<?xml version="1.0" encoding="UTF-8" standalone="no"?>
<svg
   width="20.32mm"
   height="128.5mm"
   viewBox="0 0 20.32 128.5"
   version="1.1"
   id="svg1238"
   inkscape:version="1.1 (c4e8f9e, 2021-05-24)"
   sodipodi:docname="UnityMix.svg"
   xmlns:inkscape="http://www.inkscape.org/namespaces/inkscape"
   xmlns:sodipodi="http://sodipodi.sourceforge.net/DTD/sodipodi-0.dtd"
   xmlns="http://www.w3.org/2000/svg"
   xmlns:svg="http://www.w3.org/2000/svg"
   xmlns:rdf="http://www.w3.org/1999/02/22-rdf-syntax-ns#"
   xmlns:cc="http://creativecommons.org/ns#"
   xmlns:dc="http://purl.org/dc/elements/1.1/">
  <defs
     id="defs1232">
    <linearGradient
       id="linearGradient27948"
       inkscape:swatch="solid">
      <stop
         style="stop-color:#000000;stop-opacity:1;"
         offset="0"
         id="stop27946" />
    </linearGradient>
    <linearGradient
       id="linearGradient10893"
       inkscape:swatch="solid">
      <stop
         style="stop-color:#ff1f1f;stop-opacity:1;"
         offset="0"
         id="stop10891" />
    </linearGradient>
    <linearGradient
       id="linearGradient3698"
       inkscape:swatch="solid">
      <stop
         style="stop-color:#000000;stop-opacity:1;"
         offset="0"
         id="stop3696" />
    </linearGradient>
  </defs>
  <sodipodi:namedview
     id="base"
     pagecolor="#ffffff"
     bordercolor="#666666"
     borderopacity="1.0"
     inkscape:pageopacity="0.0"
     inkscape:pageshadow="2"
     inkscape:zoom="1.3651269"
     inkscape:cx="105.85097"
     inkscape:cy="221.22486"
     inkscape:document-units="mm"
     inkscape:current-layer="layer5"
     inkscape:document-rotation="0"
     showgrid="true"
     inkscape:window-width="1440"
     inkscape:window-height="993"
     inkscape:window-x="1674"
     inkscape:window-y="25"
     inkscape:window-maximized="0"
     inkscape:pagecheckerboard="0"
     units="mm"
     inkscape:snap-global="false"
     width="20.32mm">
    <inkscape:grid
       type="xygrid"
       id="grid12338" />
  </sodipodi:namedview>
  <metadata
     id="metadata1235">
    <rdf:RDF>
      <cc:Work
         rdf:about="">
        <dc:format>image/svg+xml</dc:format>
        <dc:type
           rdf:resource="http://purl.org/dc/dcmitype/StillImage" />
      </cc:Work>
    </rdf:RDF>
  </metadata>
  <g
     style="display:inline"
     inkscape:label="Layer 1"
     inkscape:groupmode="layer"
     id="layer1"
     sodipodi:insensitive="true">
    <rect
       y="0"
       x="0"
       height="128.5"
       width="20.32"
       id="rect1391"
       style="opacity:0.98;fill:#bcbbb7;fill-opacity:1;stroke:none;stroke-width:0;stroke-opacity:1" />
    <path
       style="fill:#bcbbb7;fill-opacity:1;stroke:#000000;stroke-width:0.265;stroke-linecap:butt;stroke-linejoin:miter;stroke-miterlimit:4;stroke-dasharray:none;stroke-opacity:1"
       d="M 10.1485,-1.1641495 V 130.71736"
       id="path1570" />
  </g>
  <g
     inkscape:groupmode="layer"
     id="layer2"
     inkscape:label="boxes"
     style="display:none"
     sodipodi:insensitive="true">
    <rect
       style="display:inline;fill:#000000;fill-opacity:1;stroke-width:0.197;stroke-linejoin:round"
       id="rect1283"
       width="12.718786"
       height="47.357182"
       x="4.0591869"
       y="79.289452" />
  </g>
  <g
     inkscape:groupmode="layer"
     id="layer6"
     inkscape:label="labels"
     style="display:none"
     sodipodi:insensitive="true">
    <text
       xml:space="preserve"
       style="font-size:10.5833px;line-height:1.25;font-family:Phosphate;-inkscape-font-specification:'Phosphate, Normal';stroke-width:0.264583"
       x="4.2790117"
       y="7.88239"
       id="text62677"><tspan
         sodipodi:role="line"
         id="tspan62675"
         style="stroke-width:0.264583"
         x="4.2790117"
         y="7.88239" /></text>
    <text
       xml:space="preserve"
       style="font-size:10.5833px;line-height:1.25;font-family:Phosphate;-inkscape-font-specification:'Phosphate, Normal';stroke-width:0.264583"
       x="26.124493"
       y="-14.638724"
       id="text66813"><tspan
         sodipodi:role="line"
         id="tspan66811"
         style="stroke-width:0.264583"
         x="26.124493"
         y="-14.638724" /></text>
    <g
       aria-label="Frequency"
       id="text14385"
       style="font-weight:bold;font-size:2.82222px;line-height:1.25;font-family:Helvetica;-inkscape-font-specification:'Helvetica, Bold';stroke-width:0.264583"
       transform="translate(0,1.8942872)">
      <path
         d="M 3.4640802,16.639878 H 4.904129 v 0.356911 H 3.8857596 v 0.467155 h 0.89159 v 0.352777 h -0.89159 v 0.851627 H 3.4640802 Z"
         id="path54982" />
      <path
         d="m 5.9734858,17.130459 q 0.011024,0 0.017914,0.0014 0.00827,0 0.034451,0.0014 v 0.402387 q -0.037207,-0.0041 -0.066146,-0.0055 -0.028939,-0.0014 -0.046853,-0.0014 -0.2370224,0 -0.3183266,0.15434 -0.045475,0.08682 -0.045475,0.267339 v 0.717957 H 5.1535537 v -1.50206 h 0.3748261 v 0.261827 q 0.09095,-0.150206 0.1584743,-0.205328 0.1102429,-0.09233 0.2866317,-0.09233 z"
         id="path54984" />
      <path
         d="m 6.8471614,17.450163 q -0.1364257,0 -0.2122177,0.08544 -0.074414,0.08544 -0.093706,0.23151 h 0.6104704 q -0.00965,-0.155718 -0.095084,-0.235644 -0.08406,-0.08131 -0.2094617,-0.08131 z m 0,-0.323838 q 0.1874131,0 0.3376191,0.07028 0.1502061,0.07028 0.2480467,0.221864 0.088194,0.133669 0.1143771,0.310058 0.015158,0.103353 0.012402,0.297656 H 6.5315909 q 0.00827,0.225998 0.1419378,0.316949 0.081304,0.0565 0.1956813,0.0565 0.1212673,0 0.1970593,-0.0689 0.041341,-0.03721 0.073036,-0.103353 h 0.4010088 q -0.015158,0.13367 -0.1391818,0.271474 -0.1929252,0.219108 -0.5401905,0.219108 -0.2866317,0 -0.5057397,-0.184657 -0.2191079,-0.184657 -0.2191079,-0.600825 0,-0.389984 0.1970594,-0.598068 0.1984373,-0.208083 0.5140078,-0.208083 z m 0.027561,0 z"
         id="path54986" />
      <path
         d="m 8.4622208,18.378961 q 0.2025715,0 0.2880098,-0.173633 0.055121,-0.114377 0.055121,-0.289388 0,-0.137804 -0.046853,-0.246669 -0.08406,-0.195681 -0.2949,-0.195681 -0.148828,0 -0.2397784,0.114377 -0.089572,0.114377 -0.089572,0.347266 0,0.155718 0.041341,0.254936 0.07717,0.188792 0.2866316,0.188792 z m -0.099219,-1.251258 q 0.1874131,0 0.3031682,0.09233 0.067524,0.05237 0.1378037,0.172255 V 17.169044 H 9.1829342 V 19.26366 H 8.7943277 v -0.781347 q -0.044097,0.09095 -0.151584,0.162609 -0.1061089,0.07028 -0.2907659,0.07028 -0.260449,0 -0.4437279,-0.208084 -0.183279,-0.208084 -0.183279,-0.555349 0,-0.374826 0.183279,-0.599446 0.1846569,-0.22462 0.4547519,-0.22462 z"
         id="path54988" />
      <path
         d="m 9.9422329,17.166288 v 0.90537 q 0,0.128158 0.030317,0.192925 0.053743,0.114378 0.2108391,0.114378 0.201194,0 0.275608,-0.162609 0.03858,-0.08819 0.03858,-0.232888 v -0.817176 h 0.398253 v 1.50206 h -0.381717 v -0.212217 q -0.0055,0.0069 -0.02756,0.04134 -0.02205,0.03445 -0.05237,0.06063 -0.09233,0.08268 -0.179145,0.112999 -0.08544,0.03032 -0.201193,0.03032 -0.3334849,0 -0.44924,-0.239778 Q 9.539837,18.32935 9.539837,18.071657 v -0.90537 z m 0.2756071,-0.03996 z"
         id="path54990" />
      <path
         d="m 11.868729,17.450163 q -0.136426,0 -0.212218,0.08544 -0.07441,0.08544 -0.09371,0.23151 h 0.610471 q -0.0096,-0.155718 -0.09509,-0.235644 -0.08406,-0.08131 -0.209461,-0.08131 z m 0,-0.323838 q 0.187413,0 0.337619,0.07028 0.150206,0.07028 0.248046,0.221864 0.08819,0.133669 0.114377,0.310058 0.01516,0.103353 0.0124,0.297656 h -1.028016 q 0.0083,0.225998 0.141938,0.316949 0.0813,0.0565 0.195681,0.0565 0.121267,0 0.197059,-0.0689 0.04134,-0.03721 0.07304,-0.103353 h 0.401009 q -0.01516,0.13367 -0.139182,0.271474 -0.192925,0.219108 -0.54019,0.219108 -0.286632,0 -0.50574,-0.184657 -0.219108,-0.184657 -0.219108,-0.600825 0,-0.389984 0.19706,-0.598068 0.198437,-0.208083 0.514008,-0.208083 z m 0.02756,0 z"
         id="path54992" />
      <path
         d="m 13.679469,17.130459 q 0.232888,0 0.380338,0.122645 0.148828,0.121267 0.148828,0.403765 v 1.011479 H 13.806248 V 17.75471 q 0,-0.118512 -0.0317,-0.181901 -0.05788,-0.115755 -0.220485,-0.115755 -0.199816,0 -0.27423,0.169498 -0.03858,0.08957 -0.03858,0.228754 v 0.813042 h -0.391362 v -1.499304 h 0.37896 v 0.219108 q 0.07579,-0.115755 0.143316,-0.166743 0.121267,-0.09095 0.307302,-0.09095 z m -0.144694,-0.0041 z"
         id="path54994" />
      <path
         d="m 15.469539,17.7051 q -0.01102,-0.08406 -0.0565,-0.151584 -0.06615,-0.09095 -0.205328,-0.09095 -0.198437,0 -0.271473,0.197059 -0.03859,0.104731 -0.03859,0.278364 0,0.165364 0.03859,0.265961 0.07028,0.187413 0.264583,0.187413 0.137804,0 0.195681,-0.07441 0.05788,-0.07441 0.07028,-0.192925 h 0.401009 q -0.01378,0.179144 -0.129535,0.338997 -0.184657,0.257693 -0.547081,0.257693 -0.362424,0 -0.533301,-0.214974 -0.170876,-0.214974 -0.170876,-0.558105 0,-0.387229 0.188791,-0.602202 0.188791,-0.214974 0.520898,-0.214974 0.282498,0 0.461642,0.126779 0.180523,0.12678 0.213596,0.447862 z m -0.265961,-0.578775 z"
         id="path54996" />
      <path
         d="m 16.204034,18.956358 0.04961,0.0028 q 0.05788,0.0028 0.110243,-0.0041 0.05236,-0.0069 0.08819,-0.03169 0.03445,-0.02343 0.06339,-0.09784 0.03032,-0.07441 0.02481,-0.09095 l -0.551217,-1.56829 h 0.436838 l 0.327973,1.107942 0.310058,-1.107942 h 0.417545 l -0.515386,1.477256 q -0.148828,0.427191 -0.235644,0.529166 -0.08682,0.103353 -0.347265,0.103353 -0.05237,0 -0.08406,-0.0014 -0.03169,0 -0.09508,-0.0041 z m 0.531922,-1.830033 z"
         id="path54998" />
    </g>
    <g
       aria-label="VCO"
       id="text14385-3"
       style="font-weight:bold;font-size:2.82222px;line-height:1.25;font-family:Helvetica;-inkscape-font-specification:'Helvetica, Bold';display:inline;stroke-width:0.264583">
      <path
         d="M 6.7603247,6.4233887 H 7.7525122 L 6.1929175,10.993652 H 5.290647 L 3.7465552,6.4233887 H 4.766648 l 0.9921875,3.4695557 z"
         style="font-size:6.35px"
         id="path54975" />
      <path
         d="m 8.1276831,8.7457276 q 0,-1.1968262 0.6418212,-1.8448486 0.5581055,-0.5643067 1.4200687,-0.5643067 1.153418,0 1.686718,0.756543 0.294556,0.4247803 0.31626,0.8526611 h -0.95498 Q 11.144553,7.6171143 10.998826,7.4496827 10.738376,7.1520264 10.22678,7.1520264 q -0.5208987,0 -0.8216555,0.4216797 -0.3007569,0.4185791 -0.3007569,1.1875244 0,0.7689453 0.3162598,1.153418 0.3193603,0.3813725 0.8092526,0.3813725 0.502295,0 0.765845,-0.3286626 0.145728,-0.1767334 0.241846,-0.5302002 h 0.945678 q -0.124023,0.7472408 -0.63562,1.2154298 -0.508496,0.468188 -1.305346,0.468188 -0.9859867,0 -1.5502933,-0.632519 Q 8.1276831,9.8526367 8.1276831,8.7457276 Z M 10.161667,6.2838624 Z"
         style="font-size:6.35px"
         id="path54977" />
      <path
         d="m 14.93657,10.311523 q 0.567407,0 0.89917,-0.4185786 0.334863,-0.4185791 0.334863,-1.190625 0,-0.7689453 -0.334863,-1.1875244 -0.331763,-0.4216797 -0.89917,-0.4216797 -0.567407,0 -0.905371,0.4185791 -0.337964,0.4185791 -0.337964,1.190625 0,0.7720459 0.337964,1.190625 0.337964,0.4185786 0.905371,0.4185786 z m 2.189014,-1.6092036 q 0,1.2309326 -0.691431,1.8851566 -0.517798,0.5333 -1.497583,0.5333 -0.979785,0 -1.497583,-0.5333 -0.694531,-0.654224 -0.694531,-1.8851566 0,-1.2557373 0.694531,-1.8851563 0.517798,-0.5333007 1.497583,-0.5333007 0.979785,0 1.497583,0.5333007 0.691431,0.629419 0.691431,1.8851563 z M 14.93657,6.2838624 Z"
         style="font-size:6.35px"
         id="path54979" />
    </g>
    <g
       aria-label="Square Output"
       id="text14385-1"
       style="font-weight:bold;font-size:2.82222px;line-height:1.25;font-family:Helvetica;-inkscape-font-specification:'Helvetica, Bold';display:inline;fill:#ffffff;fill-opacity:1;stroke-width:0.264583">
      <path
         d="m 6.1903149,109.0129 q 0.019293,0.13918 0.075792,0.20808 0.1033528,0.12541 0.3541555,0.12541 0.1502061,0 0.2439126,-0.0331 0.1777668,-0.0634 0.1777668,-0.23564 0,-0.1006 -0.088194,-0.15572 -0.088194,-0.0537 -0.2769855,-0.0951 l -0.2149738,-0.0482 q -0.3169485,-0.0717 -0.4382158,-0.15571 -0.2053275,-0.14056 -0.2053275,-0.4396 0,-0.27285 0.1984373,-0.45337 0.1984374,-0.18052 0.5829098,-0.18052 0.3210826,0 0.5470807,0.17087 0.2273761,0.1695 0.2384004,0.49334 h -0.407899 q -0.011024,-0.18328 -0.1598523,-0.26045 -0.099219,-0.051 -0.2466686,-0.051 -0.1639864,0 -0.2618271,0.0662 -0.097841,0.0661 -0.097841,0.18466 0,0.10886 0.096463,0.1626 0.062012,0.0358 0.2645831,0.0841 l 0.3500215,0.0841 q 0.2301322,0.0551 0.3472653,0.14745 0.1819009,0.14332 0.1819009,0.41479 0,0.27837 -0.2135957,0.46302 -0.2122178,0.18328 -0.6008242,0.18328 -0.3968747,0 -0.6242509,-0.18052 -0.2273761,-0.1819 -0.2273761,-0.49885 z m 0.4120331,-1.46623 z"
         id="path55040"
         style="fill:#ffffff;fill-opacity:1" />
      <path
         d="m 8.3731258,109.35052 q 0.2025715,0 0.2880098,-0.17363 0.055121,-0.11438 0.055121,-0.28939 0,-0.1378 -0.046853,-0.24667 -0.08406,-0.19568 -0.2949,-0.19568 -0.148828,0 -0.2397784,0.11438 -0.089572,0.11437 -0.089572,0.34726 0,0.15572 0.041341,0.25494 0.07717,0.18879 0.2866316,0.18879 z m -0.099219,-1.25126 q 0.1874131,0 0.3031682,0.0923 0.067524,0.0524 0.1378037,0.17226 v -0.22325 h 0.3789602 v 2.09462 H 8.7052327 v -0.78135 q -0.044097,0.091 -0.151584,0.16261 -0.1061089,0.0703 -0.2907659,0.0703 -0.260449,0 -0.4437279,-0.20808 -0.183279,-0.20809 -0.183279,-0.55535 0,-0.37483 0.183279,-0.59945 0.1846569,-0.22462 0.4547522,-0.22462 z"
         id="path55042"
         style="fill:#ffffff;fill-opacity:1" />
      <path
         d="m 9.8531378,108.13785 v 0.90537 q 0,0.12816 0.030317,0.19292 0.053743,0.11438 0.2108392,0.11438 0.201194,0 0.275608,-0.16261 0.03858,-0.0882 0.03858,-0.23289 v -0.81717 h 0.398252 v 1.50206 h -0.381716 v -0.21222 q -0.0055,0.007 -0.02756,0.0413 -0.02205,0.0344 -0.05236,0.0606 -0.09233,0.0827 -0.179145,0.113 -0.08544,0.0303 -0.201193,0.0303 -0.333485,0 -0.4492401,-0.23978 -0.064768,-0.13229 -0.064768,-0.38998 v -0.90537 z m 0.2756072,-0.04 z"
         id="path55044"
         style="fill:#ffffff;fill-opacity:1" />
      <path
         d="m 12.015278,108.90955 q -0.03721,0.0234 -0.07579,0.0386 -0.03721,0.0138 -0.103353,0.0262 l -0.08819,0.0165 q -0.124024,0.0221 -0.177767,0.0538 -0.09095,0.0537 -0.09095,0.16674 0,0.10059 0.05512,0.14607 0.0565,0.0441 0.136425,0.0441 0.12678,0 0.232889,-0.0744 0.107487,-0.0744 0.111621,-0.27147 z m -0.238401,-0.18328 q 0.108865,-0.0138 0.155719,-0.0344 0.08406,-0.0358 0.08406,-0.11162 0,-0.0923 -0.06477,-0.12678 -0.06339,-0.0358 -0.187413,-0.0358 -0.139182,0 -0.197059,0.0689 -0.04134,0.051 -0.05512,0.1378 h -0.37896 q 0.0124,-0.19705 0.110243,-0.32383 0.155718,-0.19844 0.534678,-0.19844 0.246669,0 0.438216,0.0978 0.191547,0.0978 0.191547,0.36931 v 0.68902 q 0,0.0717 0.0028,0.17363 0.0041,0.0772 0.02343,0.10474 0.01929,0.0276 0.05788,0.0455 v 0.0579 h -0.427192 q -0.01791,-0.0455 -0.02481,-0.0854 -0.0069,-0.04 -0.01102,-0.0909 -0.0813,0.0882 -0.187413,0.15021 -0.126779,0.073 -0.286632,0.073 -0.203949,0 -0.337619,-0.11575 -0.132291,-0.11714 -0.132291,-0.33073 0,-0.27699 0.213595,-0.40101 0.117134,-0.0675 0.34451,-0.0965 z m 0.02067,-0.62839 z"
         id="path55046"
         style="fill:#ffffff;fill-opacity:1" />
      <path
         d="m 13.573838,108.10202 q 0.01102,0 0.01791,0.001 0.0083,0 0.03445,0.001 v 0.40239 q -0.03721,-0.004 -0.06615,-0.006 -0.02894,-0.001 -0.04685,-0.001 -0.237022,0 -0.318326,0.15434 -0.04548,0.0868 -0.04548,0.26734 v 0.71796 h -0.395496 v -1.50206 h 0.374826 v 0.26182 q 0.09095,-0.1502 0.158474,-0.20532 0.110243,-0.0923 0.286632,-0.0923 z"
         id="path55048"
         style="fill:#ffffff;fill-opacity:1" />
      <path
         d="m 14.447513,108.42172 q -0.136426,0 -0.212218,0.0854 -0.07441,0.0854 -0.09371,0.23151 h 0.61047 q -0.0096,-0.15572 -0.09508,-0.23564 -0.08406,-0.0813 -0.209462,-0.0813 z m 0,-0.32384 q 0.187413,0 0.337619,0.0703 0.150206,0.0703 0.248047,0.22187 0.08819,0.13367 0.114377,0.31006 0.01516,0.10335 0.0124,0.29765 H 14.13194 q 0.0083,0.226 0.141938,0.31695 0.0813,0.0565 0.195682,0.0565 0.121267,0 0.197059,-0.0689 0.04134,-0.0372 0.07304,-0.10335 h 0.401009 q -0.01516,0.13367 -0.139182,0.27147 -0.192925,0.21911 -0.540191,0.21911 -0.286631,0 -0.505739,-0.18466 -0.219108,-0.18466 -0.219108,-0.60082 0,-0.38999 0.197059,-0.59807 0.198437,-0.20809 0.514008,-0.20809 z m 0.02756,0 z"
         id="path55050"
         style="fill:#ffffff;fill-opacity:1" />
      <path
         d="m 6.7814929,112.86451 q 0.2521808,0 0.3996307,-0.18603 0.1488281,-0.18604 0.1488281,-0.52917 0,-0.34175 -0.1488281,-0.52778 -0.1474499,-0.18742 -0.3996307,-0.18742 -0.2521808,0 -0.4023869,0.18604 -0.150206,0.18603 -0.150206,0.52916 0,0.34313 0.150206,0.52917 0.1502061,0.18603 0.4023869,0.18603 z m 0.9728942,-0.7152 q 0,0.54708 -0.3073023,0.83785 -0.2301322,0.23702 -0.6655919,0.23702 -0.4354598,0 -0.665592,-0.23702 -0.3086803,-0.29077 -0.3086803,-0.83785 0,-0.5581 0.3086803,-0.83784 0.2301322,-0.23703 0.665592,-0.23703 0.4354597,0 0.6655919,0.23703 0.3073023,0.27974 0.3073023,0.83784 z m -0.9728942,-1.07487 z"
         id="path55052"
         style="fill:#ffffff;fill-opacity:1" />
      <path
         d="m 8.4365156,111.66562 v 0.90537 q 0,0.12816 0.030317,0.19293 0.053744,0.11438 0.2108397,0.11438 0.2011934,0 0.2756074,-0.16261 0.038585,-0.0882 0.038585,-0.23289 v -0.81718 h 0.3982527 v 1.50206 H 9.008401 v -0.21221 q -0.00551,0.007 -0.027561,0.0413 -0.022049,0.0345 -0.052365,0.0606 -0.092328,0.0827 -0.1791449,0.113 -0.085438,0.0303 -0.2011934,0.0303 -0.333485,0 -0.4492401,-0.23978 -0.064768,-0.13229 -0.064768,-0.38999 v -0.90537 z m 0.2756074,-0.04 z"
         id="path55054"
         style="fill:#ffffff;fill-opacity:1" />
      <path
         d="M 9.6161153,111.95914 V 111.6794 H 9.825577 v -0.41892 h 0.388606 v 0.41892 h 0.243913 v 0.27974 h -0.243913 v 0.79375 q 0,0.0923 0.02343,0.11576 0.02343,0.022 0.143316,0.022 0.01791,0 0.03721,0 0.02067,-10e-4 0.03996,-0.003 v 0.29352 l -0.186035,0.007 q -0.2783635,0.01 -0.3803382,-0.0965 -0.066146,-0.0675 -0.066146,-0.20808 v -0.92467 z"
         id="path55056"
         style="fill:#ffffff;fill-opacity:1" />
      <path
         d="m 11.747939,112.41665 q 0,-0.17363 -0.07993,-0.3073 -0.07855,-0.13367 -0.256315,-0.13367 -0.213596,0 -0.293522,0.20257 -0.04134,0.10749 -0.04134,0.27285 0,0.26183 0.139182,0.36794 0.08268,0.062 0.195681,0.062 0.163986,0 0.249425,-0.12678 0.08682,-0.12678 0.08682,-0.33762 z m -0.223242,-0.7841 q 0.263205,0 0.445106,0.1943 0.183279,0.19431 0.183279,0.57051 0,0.39687 -0.179145,0.60496 -0.177767,0.20808 -0.458886,0.20808 -0.179145,0 -0.297656,-0.0896 -0.06477,-0.0496 -0.12678,-0.14469 v 0.78272 h -0.388606 v -2.09324 h 0.376204 v 0.22187 q 0.06339,-0.0978 0.135048,-0.15434 0.130913,-0.1006 0.311436,-0.1006 z"
         id="path55058"
         style="fill:#ffffff;fill-opacity:1" />
      <path
         d="m 12.829698,111.66562 v 0.90537 q 0,0.12816 0.03032,0.19293 0.05374,0.11438 0.210839,0.11438 0.201194,0 0.275608,-0.16261 0.03858,-0.0882 0.03858,-0.23289 v -0.81718 H 13.7833 v 1.50206 h -0.381717 v -0.21221 q -0.0055,0.007 -0.02756,0.0413 -0.02205,0.0345 -0.05237,0.0606 -0.09233,0.0827 -0.179145,0.113 -0.08544,0.0303 -0.201193,0.0303 -0.333485,0 -0.44924,-0.23978 -0.06477,-0.13229 -0.06477,-0.38999 v -0.90537 z m 0.275607,-0.04 z"
         id="path55060"
         style="fill:#ffffff;fill-opacity:1" />
      <path
         d="m 14.009297,111.95914 v -0.27974 h 0.209462 v -0.41892 h 0.388607 v 0.41892 h 0.243912 v 0.27974 h -0.243912 v 0.79375 q 0,0.0923 0.02343,0.11576 0.02343,0.022 0.143316,0.022 0.01791,0 0.03721,0 0.02067,-10e-4 0.03996,-0.003 v 0.29352 l -0.186035,0.007 q -0.278363,0.01 -0.380338,-0.0965 -0.06615,-0.0675 -0.06615,-0.20808 v -0.92467 z"
         id="path55062"
         style="fill:#ffffff;fill-opacity:1" />
    </g>
    <g
       aria-label="Sine Output"
       id="text14385-1-3"
       style="font-weight:bold;font-size:2.82222px;line-height:1.25;font-family:Helvetica;-inkscape-font-specification:'Helvetica, Bold';display:inline;fill:#ffffff;fill-opacity:1;stroke-width:0.264583">
      <path
         d="m 7.9792191,84.059738 q 0.019292,0.139182 0.075792,0.208083 0.1033528,0.125402 0.3541556,0.125402 0.150206,0 0.2439125,-0.03307 0.1777668,-0.06339 0.1777668,-0.235644 0,-0.100597 -0.088194,-0.155719 Q 8.654458,83.91505 8.4656665,83.87371 L 8.2506924,83.825471 Q 7.9337438,83.753814 7.8124766,83.669753 7.607149,83.529193 7.607149,83.230159 q 0,-0.272851 0.1984374,-0.453374 0.1984373,-0.180523 0.5829097,-0.180523 0.3210827,0 0.5470808,0.170877 0.2273761,0.169499 0.2384004,0.493337 H 8.7660783 Q 8.755054,83.077197 8.606226,83.000027 8.5070073,82.94904 8.3595573,82.94904 q -0.1639864,0 -0.261827,0.06615 -0.097841,0.06615 -0.097841,0.184657 0,0.108865 0.096463,0.162608 0.062012,0.03583 0.2645832,0.08406 l 0.3500214,0.08406 q 0.2301322,0.05512 0.3472654,0.147449 0.1819009,0.143316 0.1819009,0.41479 0,0.278363 -0.2135958,0.46302 -0.2122177,0.183279 -0.6008242,0.183279 -0.3968747,0 -0.6242508,-0.180523 -0.2273762,-0.181901 -0.2273762,-0.498849 z m 0.4120331,-1.466232 z"
         style="text-align:center;text-anchor:middle;fill:#ffffff;fill-opacity:1"
         id="path55019" />
      <path
         d="M 9.9291417,83.005539 H 9.5308889 v -0.362423 h 0.3982528 z m -0.3982528,0.179145 h 0.3982528 v 1.502061 H 9.5308889 Z"
         style="text-align:center;text-anchor:middle;fill:#ffffff;fill-opacity:1"
         id="path55021" />
      <path
         d="m 11.140436,83.148855 q 0.232889,0 0.380339,0.122646 0.148828,0.121267 0.148828,0.403764 v 1.01148 h -0.402387 v -0.913639 q 0,-0.118511 -0.03169,-0.181901 -0.05788,-0.115755 -0.220486,-0.115755 -0.199815,0 -0.274229,0.169499 -0.03858,0.08957 -0.03858,0.228754 v 0.813042 H 10.310858 V 83.18744 h 0.37896 v 0.219108 q 0.07579,-0.115755 0.143316,-0.166742 0.121267,-0.09095 0.307302,-0.09095 z m -0.144693,-0.0041 z"
         style="text-align:center;text-anchor:middle;fill:#ffffff;fill-opacity:1"
         id="path55023" />
      <path
         d="m 12.62596,83.46856 q -0.136425,0 -0.212218,0.08544 -0.07441,0.08544 -0.09371,0.23151 h 0.61047 q -0.0096,-0.155718 -0.09508,-0.235644 -0.08406,-0.0813 -0.209462,-0.0813 z m 0,-0.323839 q 0.187413,0 0.337619,0.07028 0.150206,0.07028 0.248047,0.221864 0.08819,0.13367 0.114377,0.310058 0.01516,0.103353 0.0124,0.297656 H 12.31039 q 0.0083,0.225998 0.141938,0.316949 0.0813,0.0565 0.195681,0.0565 0.121267,0 0.197059,-0.0689 0.04134,-0.03721 0.07304,-0.103353 h 0.401009 q -0.01516,0.133669 -0.139182,0.271473 -0.192925,0.219108 -0.54019,0.219108 -0.286632,0 -0.50574,-0.184657 -0.219108,-0.184657 -0.219108,-0.600824 0,-0.389985 0.197059,-0.598068 0.198438,-0.208084 0.514008,-0.208084 z m 0.02756,0 z"
         style="text-align:center;text-anchor:middle;fill:#ffffff;fill-opacity:1"
         id="path55025" />
      <path
         d="m 6.9250207,87.911352 q 0.2521807,0 0.3996307,-0.186035 0.148828,-0.186035 0.148828,-0.529167 0,-0.341753 -0.148828,-0.527788 -0.14745,-0.187413 -0.3996307,-0.187413 -0.2521808,0 -0.4023869,0.186035 -0.150206,0.186035 -0.150206,0.529166 0,0.343132 0.150206,0.529167 0.1502061,0.186035 0.4023869,0.186035 z M 7.8979149,87.19615 q 0,0.547081 -0.3073023,0.837847 -0.2301322,0.237022 -0.6655919,0.237022 -0.4354598,0 -0.665592,-0.237022 -0.3086803,-0.290766 -0.3086803,-0.837847 0,-0.558105 0.3086803,-0.837846 0.2301322,-0.237023 0.665592,-0.237023 0.4354597,0 0.6655919,0.237023 0.3073023,0.279741 0.3073023,0.837846 z M 6.9250207,86.121281 Z"
         style="text-align:center;text-anchor:middle;fill:#ffffff;fill-opacity:1"
         id="path55027" />
      <path
         d="m 8.5800434,86.712459 v 0.905371 q 0,0.128157 0.030317,0.192925 0.053743,0.114377 0.2108397,0.114377 0.2011934,0 0.2756074,-0.162608 0.038585,-0.08819 0.038585,-0.232889 V 86.712459 H 9.5336451 V 88.21452 H 9.1519288 v -0.212218 q -0.00551,0.0069 -0.027561,0.04134 -0.022049,0.03445 -0.052366,0.06063 -0.092328,0.08268 -0.1791448,0.112999 -0.085438,0.03032 -0.2011934,0.03032 -0.333485,0 -0.4492401,-0.239779 -0.064768,-0.132291 -0.064768,-0.389984 v -0.905371 z m 0.2756074,-0.03996 z"
         style="text-align:center;text-anchor:middle;fill:#ffffff;fill-opacity:1"
         id="path55029" />
      <path
         d="M 9.7596431,87.005981 V 86.72624 h 0.2094617 v -0.418924 h 0.3886062 v 0.418924 h 0.243913 v 0.279741 h -0.243913 v 0.79375 q 0,0.09233 0.02343,0.115755 0.02343,0.02205 0.143316,0.02205 0.01791,0 0.03721,0 0.02067,-0.0014 0.03996,-0.0028 V 88.2283 l -0.186035,0.0069 Q 10.137228,88.2448 10.035254,88.13874 9.969108,88.07122 9.969108,87.930656 v -0.924663 z"
         style="text-align:center;text-anchor:middle;fill:#ffffff;fill-opacity:1"
         id="path55031" />
      <path
         d="m 11.891467,87.46349 q 0,-0.173633 -0.07993,-0.307303 -0.07855,-0.133669 -0.256315,-0.133669 -0.213596,0 -0.293522,0.202571 -0.04134,0.107487 -0.04134,0.272851 0,0.261828 0.139181,0.367936 0.08268,0.06201 0.195682,0.06201 0.163986,0 0.249424,-0.126779 0.08682,-0.12678 0.08682,-0.337619 z m -0.223242,-0.784104 q 0.263205,0 0.445106,0.194304 0.183279,0.194303 0.183279,0.570507 0,0.396875 -0.179145,0.604958 -0.177767,0.208084 -0.458886,0.208084 -0.179145,0 -0.297657,-0.08957 -0.06477,-0.04961 -0.126779,-0.144694 V 88.8057 h -0.388606 v -2.093239 h 0.376204 v 0.221864 q 0.06339,-0.09784 0.135047,-0.15434 0.130914,-0.100597 0.311437,-0.100597 z"
         style="text-align:center;text-anchor:middle;fill:#ffffff;fill-opacity:1"
         id="path55033" />
      <path
         d="m 12.973226,86.712459 v 0.905371 q 0,0.128157 0.03032,0.192925 0.05374,0.114377 0.21084,0.114377 0.201194,0 0.275608,-0.162608 0.03858,-0.08819 0.03858,-0.232889 v -0.817176 h 0.398252 V 88.21452 H 13.54511 v -0.212218 q -0.0055,0.0069 -0.02756,0.04134 -0.02205,0.03445 -0.05236,0.06063 -0.09233,0.08268 -0.179145,0.112999 -0.08544,0.03032 -0.201193,0.03032 -0.333485,0 -0.44924,-0.239779 -0.06477,-0.132291 -0.06477,-0.389984 v -0.905371 z m 0.275607,-0.03996 z"
         style="text-align:center;text-anchor:middle;fill:#ffffff;fill-opacity:1"
         id="path55035" />
      <path
         d="M 14.152825,87.005981 V 86.72624 h 0.209462 v -0.418924 h 0.388606 v 0.418924 h 0.243913 v 0.279741 h -0.243913 v 0.79375 q 0,0.09233 0.02343,0.115755 0.02343,0.02205 0.143316,0.02205 0.01791,0 0.03721,0 0.02067,-0.0014 0.03996,-0.0028 V 88.2283 l -0.186035,0.0069 q -0.278364,0.0096 -0.380338,-0.09646 -0.06615,-0.06752 -0.06615,-0.208084 v -0.924663 z"
         style="text-align:center;text-anchor:middle;fill:#ffffff;fill-opacity:1"
         id="path55037" />
    </g>
    <g
       aria-label="0 Hz"
       id="text14385-9"
       style="font-weight:bold;font-size:2.82222px;line-height:1.25;font-family:Helvetica;-inkscape-font-specification:'Helvetica, Bold';text-align:center;text-anchor:middle;display:inline;stroke-width:0.264583"
       transform="translate(0,5.9534742)">
      <path
         d="m 4.5576038,31.055883 q 0,0.344509 0.0565,0.527788 0.056499,0.181901 0.2315102,0.181901 0.1750107,0 0.2287542,-0.181901 0.055122,-0.183279 0.055122,-0.527788 0,-0.361046 -0.055122,-0.534678 -0.053744,-0.173633 -0.2287542,-0.173633 -0.1750107,0 -0.2315102,0.173633 -0.0565,0.173632 -0.0565,0.534678 z m 0.2880098,-1.03215 q 0.3817163,0 0.5346784,0.268717 0.1543402,0.268718 0.1543402,0.763433 0,0.494715 -0.1543402,0.762055 -0.1529621,0.267339 -0.5346784,0.267339 -0.3817163,0 -0.5360564,-0.267339 -0.1529622,-0.26734 -0.1529622,-0.762055 0,-0.494715 0.1529622,-0.763433 0.1543401,-0.268717 0.5360564,-0.268717 z"
         id="path55001" />
      <path
         d="m 3.340797,35.563443 v -2.031227 h 0.4203014 v 0.774457 h 0.7937494 v -0.774457 h 0.4216793 v 2.031227 H 4.5548478 V 34.656694 H 3.7610984 v 0.906749 z"
         id="path55003" />
      <path
         d="m 5.265915,34.381087 v -0.319705 h 1.2181848 v 0.326595 l -0.7620546,0.853005 h 0.7882373 v 0.322461 h -1.296733 v -0.305925 l 0.7703228,-0.876431 z m 0.6090924,-0.359668 z"
         id="path55005" />
    </g>
    <g
       aria-label="10k Hz"
       id="text14385-9-0"
       style="font-weight:bold;font-size:2.82222px;line-height:1.25;font-family:Helvetica;-inkscape-font-specification:'Helvetica, Bold';text-align:center;text-anchor:middle;display:inline;stroke-width:0.264583"
       transform="translate(0.54122492,5.6828617)">
      <path
         d="m 14.0446,30.65763 v -0.267339 q 0.186035,-0.0083 0.260449,-0.02481 0.118511,-0.02618 0.192925,-0.10473 0.05099,-0.05374 0.07717,-0.143316 0.01516,-0.05374 0.01516,-0.07993 h 0.326595 v 1.998153 H 14.514511 V 30.65763 Z"
         id="path55008" />
      <path
         d="m 15.909084,31.055883 q 0,0.344509 0.0565,0.527788 0.0565,0.181901 0.23151,0.181901 0.175011,0 0.228754,-0.181901 0.05512,-0.183279 0.05512,-0.527788 0,-0.361046 -0.05512,-0.534678 -0.05374,-0.173633 -0.228754,-0.173633 -0.175011,0 -0.23151,0.173633 -0.0565,0.173632 -0.0565,0.534678 z m 0.28801,-1.03215 q 0.381716,0 0.534678,0.268717 0.154341,0.268718 0.154341,0.763433 0,0.494715 -0.154341,0.762055 -0.152962,0.267339 -0.534678,0.267339 -0.381716,0 -0.536056,-0.267339 -0.152963,-0.26734 -0.152963,-0.762055 0,-0.494715 0.152963,-0.763433 0.15434,-0.268717 0.536056,-0.268717 z"
         id="path55010" />
      <path
         d="m 17.169988,30.011331 h 0.385851 v 1.094161 l 0.489203,-0.564995 h 0.486447 l -0.525032,0.574642 0.545703,0.920528 h -0.474045 l -0.359668,-0.642165 -0.162608,0.169499 v 0.472666 h -0.385851 z"
         id="path55012" />
      <path
         d="m 14.692278,35.563443 v -2.031227 h 0.420301 v 0.774457 h 0.793749 v -0.774457 h 0.42168 v 2.031227 h -0.42168 v -0.906749 h -0.793749 v 0.906749 z"
         id="path55014" />
      <path
         d="m 16.617395,34.381087 v -0.319705 h 1.218185 v 0.326595 l -0.762054,0.853005 h 0.788237 v 0.322461 H 16.56503 v -0.305925 l 0.770323,-0.876431 z m 0.609093,-0.359668 z"
         id="path55016" />
    </g>
  </g>
  <g
     inkscape:groupmode="layer"
     id="layer5"
     inkscape:label="components"
     style="display:inline">
    <circle
       inkscape:label="in1"
       style="display:inline;fill:#00ff00;fill-opacity:1;stroke:#fff700;stroke-width:0"
       id="path847-1-1-1"
       cx="10.124123"
       cy="18.511333"
       r="4.2865553" />
    <circle
       inkscape:label="in2"
       style="display:inline;fill:#00ff00;fill-opacity:1;stroke:#fff700;stroke-width:0"
       id="path847-1-1-1-5"
       cx="10.124123"
       cy="35.370495"
       r="4.2865553" />
    <circle
       inkscape:label="in3"
       style="display:inline;fill:#00ff00;fill-opacity:1;stroke:#fff700;stroke-width:0"
       id="path847-1-1-1-0"
       cx="10.124123"
       cy="52.229656"
       r="4.2865553" />
    <circle
       inkscape:label="gain"
       style="display:inline;fill:#ff0000;fill-opacity:1;stroke:#fff700;stroke-width:0"
       id="path847-1-1-1-4"
       cx="10.124123"
       cy="95.729576"
       r="4.2865553" />
    <circle
       inkscape:label="mix"
       r="4.2865553"
       cy="119.41526"
       cx="10.124123"
       id="path847-5-4-8-8-1-1"
       style="display:inline;fill:#0000ff;fill-opacity:1;stroke:#fff700;stroke-width:0" />
  </g>
</svg>
