<?xml version="1.0" encoding="UTF-8" standalone="no"?>
<svg
   width="20.32mm"
   height="128.5mm"
   viewBox="0 0 20.32 128.5"
   version="1.1"
   id="svg1238"
   inkscape:version="1.1 (c4e8f9e, 2021-05-24)"
   sodipodi:docname="UnityMix.svg"
   xmlns:inkscape="http://www.inkscape.org/namespaces/inkscape"
   xmlns:sodipodi="http://sodipodi.sourceforge.net/DTD/sodipodi-0.dtd"
   xmlns="http://www.w3.org/2000/svg"
   xmlns:svg="http://www.w3.org/2000/svg"
   xmlns:rdf="http://www.w3.org/1999/02/22-rdf-syntax-ns#"
   xmlns:cc="http://creativecommons.org/ns#"
   xmlns:dc="http://purl.org/dc/elements/1.1/">
  <defs
     id="defs1232">
    <linearGradient
       id="linearGradient27948"
       inkscape:swatch="solid">
      <stop
         style="stop-color:#000000;stop-opacity:1;"
         offset="0"
         id="stop27946" />
    </linearGradient>
    <linearGradient
       id="linearGradient10893"
       inkscape:swatch="solid">
      <stop
         style="stop-color:#ff1f1f;stop-opacity:1;"
         offset="0"
         id="stop10891" />
    </linearGradient>
    <linearGradient
       id="linearGradient3698"
       inkscape:swatch="solid">
      <stop
         style="stop-color:#000000;stop-opacity:1;"
         offset="0"
         id="stop3696" />
    </linearGradient>
  </defs>
  <sodipodi:namedview
     id="base"
     pagecolor="#ffffff"
     bordercolor="#666666"
     borderopacity="1.0"
     inkscape:pageopacity="0.0"
     inkscape:pageshadow="2"
     inkscape:zoom="1.312207"
     inkscape:cx="-174.89619"
     inkscape:cy="224.05002"
     inkscape:document-units="mm"
     inkscape:current-layer="layer6"
     inkscape:document-rotation="0"
     showgrid="true"
     inkscape:window-width="1440"
     inkscape:window-height="993"
     inkscape:window-x="1674"
     inkscape:window-y="25"
     inkscape:window-maximized="0"
     inkscape:pagecheckerboard="0"
     units="mm"
     inkscape:snap-global="false"
     width="20.32mm">
    <inkscape:grid
       type="xygrid"
       id="grid12338" />
  </sodipodi:namedview>
  <metadata
     id="metadata1235">
    <rdf:RDF>
      <cc:Work
         rdf:about="">
        <dc:format>image/svg+xml</dc:format>
        <dc:type
           rdf:resource="http://purl.org/dc/dcmitype/StillImage" />
      </cc:Work>
    </rdf:RDF>
  </metadata>
  <g
     style="display:inline"
     inkscape:label="Layer 1"
     inkscape:groupmode="layer"
     id="layer1"
     sodipodi:insensitive="true">
    <rect
       y="0"
       x="0"
       height="128.5"
       width="20.32"
       id="rect1391"
       style="opacity:0.98;fill:#bcbbb7;fill-opacity:1;stroke:none;stroke-width:0;stroke-opacity:1" />
  </g>
  <g
     inkscape:groupmode="layer"
     id="layer3"
     inkscape:label="Guides"
     style="display:none"
     sodipodi:insensitive="true">
    <path
       style="display:inline;fill:#bcbbb7;fill-opacity:1;stroke:#000000;stroke-width:0.265;stroke-linecap:butt;stroke-linejoin:miter;stroke-miterlimit:4;stroke-dasharray:none;stroke-opacity:1"
       d="M 10.1485,-1.1641495 V 130.71736"
       id="path1570" />
    <text
       xml:space="preserve"
       style="font-size:4.23333px;line-height:1.25;font-family:Skia;-inkscape-font-specification:'Skia, Normal';display:inline;stroke-width:0.264583"
       x="-57.52779"
       y="18.447073"
       id="text21641-3"><tspan
         sodipodi:role="line"
         id="tspan21639-5"
         style="font-style:normal;font-variant:normal;font-weight:bold;font-stretch:normal;font-size:4.23333px;font-family:'Tamil MN';-inkscape-font-specification:'Tamil MN, Bold';font-variant-ligatures:normal;font-variant-caps:normal;font-variant-numeric:normal;font-variant-east-asian:normal;stroke-width:0.264583"
         x="-57.52779"
         y="18.447073">Don't &quot;obj-&gt;path&quot;</tspan><tspan
         sodipodi:role="line"
         style="font-style:normal;font-variant:normal;font-weight:bold;font-stretch:normal;font-size:4.23333px;font-family:'Tamil MN';-inkscape-font-specification:'Tamil MN, Bold';font-variant-ligatures:normal;font-variant-caps:normal;font-variant-numeric:normal;font-variant-east-asian:normal;stroke-width:0.264583"
         x="-57.52779"
         y="23.899965"
         id="tspan39342">this txt. It is font:</tspan><tspan
         sodipodi:role="line"
         style="font-style:normal;font-variant:normal;font-weight:bold;font-stretch:normal;font-size:4.23333px;font-family:'Tamil MN';-inkscape-font-specification:'Tamil MN, Bold';font-variant-ligatures:normal;font-variant-caps:normal;font-variant-numeric:normal;font-variant-east-asian:normal;stroke-width:0.264583"
         x="-57.52779"
         y="29.352858"
         id="tspan55298">Tamil MN Bold</tspan></text>
  </g>
  <g
     inkscape:groupmode="layer"
     id="layer2"
     inkscape:label="boxes"
     style="display:inline"
     sodipodi:insensitive="true">
    <rect
       style="display:inline;fill:#000000;fill-opacity:1;stroke-width:0.132384;stroke-linejoin:round"
       id="rect1283"
       width="12.718786"
       height="21.385847"
       x="4.0030003"
       y="105.26079" />
    <rect
       style="display:inline;fill:#000000;fill-opacity:0;stroke:#000000;stroke-width:0.415062;stroke-linejoin:miter;stroke-miterlimit:4;stroke-dasharray:none;stroke-dashoffset:0;stroke-opacity:1"
       id="rect1283-2"
       width="12.706724"
       height="53.163132"
       x="3.8075311"
       y="14.854008" />
  </g>
  <g
     inkscape:groupmode="layer"
     id="layer6"
     inkscape:label="labels"
     style="display:inline"
     sodipodi:insensitive="true">
    <text
       xml:space="preserve"
       style="font-size:10.5833px;line-height:1.25;font-family:Phosphate;-inkscape-font-specification:'Phosphate, Normal';stroke-width:0.264583"
       x="4.2790117"
       y="7.88239"
       id="text62677"><tspan
         sodipodi:role="line"
         id="tspan62675"
         style="stroke-width:0.264583"
         x="4.2790117"
         y="7.88239" /></text>
    <text
       xml:space="preserve"
       style="font-size:10.5833px;line-height:1.25;font-family:Phosphate;-inkscape-font-specification:'Phosphate, Normal';stroke-width:0.264583"
       x="26.124493"
       y="-14.638724"
       id="text66813"><tspan
         sodipodi:role="line"
         id="tspan66811"
         style="stroke-width:0.264583"
         x="26.124493"
         y="-14.638724" /></text>
    <g
       aria-label="VCO"
       id="text14385-3"
       style="font-weight:bold;font-size:2.82222px;line-height:1.25;font-family:Helvetica;-inkscape-font-specification:'Helvetica, Bold';display:inline;stroke-width:0.264583"
       transform="translate(0.06002723)">
      <g
         aria-label="UNITY"
         id="text2564"
         style="font-size:4.23333px;font-family:Skia;-inkscape-font-specification:'Skia, Normal';stroke-width:0.0700042">
        <path
           d="m 2.5419423,5.8392639 h 0.803052 v 2.1028867 q 0,0.1881023 0.057878,0.3545004 0.060289,0.1663982 0.1688097,0.2917997 0.1109321,0.1229899 0.2652724,0.195337 0.1567519,0.072347 0.3520889,0.072347 0.1905138,0 0.3448541,-0.072347 Q 4.6882373,8.7114406 4.7967578,8.5884507 4.9052784,8.4630492 4.963156,8.296651 5.0234452,8.1302529 5.0234452,7.9421506 V 5.8392639 h 0.5064291 v 2.1028867 q 0,0.2532146 -0.086816,0.4799019 Q 5.358653,8.6463283 5.1753739,8.815138 4.9920948,8.9839477 4.7051183,9.082822 4.4181418,9.1816963 4.01541,9.1816963 q -0.3593235,0 -0.6366538,-0.098874 Q 3.1038375,8.9839477 2.9181469,8.815138 2.7324562,8.6439167 2.6359935,8.4172294 2.5419423,8.1905421 2.5419423,7.9349159 Z"
           style="font-size:4.93889px;font-family:'Tamil MN';-inkscape-font-specification:'Tamil MN, Bold'"
           id="path18619" />
        <path
           d="M 6.3522189,5.8392639 H 6.8658827 L 8.7300243,7.918035 V 5.8392639 h 0.501606 V 9.1575806 H 8.8867762 L 6.8610596,6.8617685 V 9.1093493 H 6.3522189 Z"
           style="font-size:4.93889px;font-family:'Tamil MN';-inkscape-font-specification:'Tamil MN, Bold'"
           id="path18621" />
        <path
           d="m 10.056386,5.8392639 h 0.800641 v 3.2700854 h -0.800641 z"
           style="font-size:4.93889px;font-family:'Tamil MN';-inkscape-font-specification:'Tamil MN, Bold'"
           id="path18623" />
        <path
           d="m 14.450262,5.8392639 v 0.2797418 h -1.131025 v 2.9903436 h -0.80064 V 6.1190057 H 11.38516 V 5.8392639 Z"
           style="font-size:4.93889px;font-family:'Tamil MN';-inkscape-font-specification:'Tamil MN, Bold'"
           id="path18625" />
        <path
           d="M 15.434181,5.8392639 16.50974,7.3127316 17.520187,5.8392639 H 18.06279 L 16.784659,7.6961708 V 9.1093493 H 15.981607 V 7.7444021 L 14.594956,5.8392639 Z"
           style="font-size:4.93889px;font-family:'Tamil MN';-inkscape-font-specification:'Tamil MN, Bold'"
           id="path18627" />
      </g>
    </g>
    <g
       aria-label="Gain"
       id="text2984"
       style="font-size:4.23333px;line-height:1.25;font-family:Skia;-inkscape-font-specification:'Skia, Normal';stroke-width:0.264583"
       transform="translate(0.33625818)">
      <path
         d="m 7.7308444,87.435271 h 0.969795 v 0.89917 q -0.1119657,0.06029 -0.2239314,0.110243 -0.1119656,0.04995 -0.2394342,0.08613 -0.1274687,0.03617 -0.279053,0.05684 -0.1498617,0.02067 -0.3376195,0.02067 -0.3014461,0 -0.5563833,-0.0844 -0.2532147,-0.08441 -0.43925,-0.237712 -0.1843127,-0.153307 -0.2876656,-0.370348 -0.103353,-0.217041 -0.103353,-0.480591 0,-0.279053 0.103353,-0.509875 0.1033529,-0.230821 0.2876656,-0.396186 0.1843128,-0.165365 0.4375274,-0.25666 0.2549373,-0.0913 0.5563833,-0.0913 0.1774225,0 0.3410647,0.04823 0.1653647,0.04823 0.3048911,0.127469 0.1395265,0.07924 0.2514922,0.18259 0.1119656,0.101631 0.1843127,0.210151 l -0.2359892,0.215319 q -0.07407,-0.105076 -0.1550294,-0.194648 -0.08096,-0.08957 -0.1722549,-0.15503 -0.091295,-0.06718 -0.1963705,-0.105075 -0.103353,-0.0379 -0.2222089,-0.0379 -0.1808676,0 -0.3376195,0.06546 -0.1550294,0.06546 -0.2704402,0.18948 -0.1136882,0.122301 -0.1791451,0.301446 -0.063734,0.179145 -0.063734,0.406522 0,0.227376 0.068902,0.401354 0.068902,0.173977 0.1877578,0.292833 0.1188559,0.118856 0.2773304,0.180867 0.160197,0.06029 0.3427872,0.06029 0.1085206,0 0.2049833,-0.02756 0.096463,-0.02928 0.1774225,-0.08785 V 87.635086 H 7.7308444 Z"
         style="font-weight:bold;font-size:3.52778px;font-family:'Tamil MN';-inkscape-font-specification:'Tamil MN, Bold'"
         id="path18648" />
      <path
         d="m 10.05284,87.66437 q -0.077515,0.03273 -0.1567518,0.07924 -0.079237,0.04651 -0.1429716,0.105075 -0.062012,0.05684 -0.1033529,0.127469 -0.039619,0.0689 -0.039619,0.148139 0,0.08785 0.044786,0.137804 0.046509,0.04995 0.1240236,0.04995 0.065457,0 0.1291911,-0.0379 0.063734,-0.03962 0.1446936,-0.10163 z M 9.0744324,87.257848 q 0.027561,-0.110243 0.096463,-0.199816 0.068902,-0.0913 0.1705324,-0.153306 0.1033529,-0.06373 0.2342666,-0.09819 0.1326363,-0.03445 0.2859431,-0.03445 0.1894805,0 0.3272835,0.03445 0.137804,0.03445 0.225654,0.09819 0.08957,0.06201 0.130914,0.151584 0.04306,0.08785 0.04306,0.198093 v 1.009414 q 0,0.10852 0.06718,0.184312 0.06718,0.07579 0.189481,0.125746 h -0.633898 q -0.02756,0 -0.0534,-0.0155 -0.02584,-0.0155 -0.04651,-0.03962 -0.02067,-0.02584 -0.03617,-0.05512 -0.0155,-0.02928 -0.02239,-0.05684 -0.04823,0.04479 -0.091295,0.08268 -0.043064,0.03617 -0.09474,0.06201 -0.051676,0.02584 -0.1154108,0.03962 -0.063734,0.0155 -0.1533069,0.0155 -0.1223009,0 -0.2204862,-0.03445 -0.096463,-0.03445 -0.1653647,-0.09474 -0.067179,-0.06201 -0.1033529,-0.144694 -0.036174,-0.08441 -0.036174,-0.182591 0,-0.151584 0.084405,-0.260104 0.084405,-0.108521 0.2222088,-0.189481 0.1395265,-0.08096 0.3152265,-0.141249 0.1757,-0.06029 0.3582902,-0.115411 V 87.27163 q 0,-0.0844 -0.01722,-0.142971 -0.01723,-0.06029 -0.048232,-0.09646 -0.031006,-0.0379 -0.075792,-0.0534 -0.043064,-0.01723 -0.096463,-0.01723 -0.063734,0 -0.1136882,0.02412 -0.049954,0.02412 -0.086127,0.06546 -0.036174,0.04134 -0.058567,0.09474 -0.022393,0.0534 -0.032728,0.111966 z"
         style="font-weight:bold;font-size:3.52778px;font-family:'Tamil MN';-inkscape-font-specification:'Tamil MN, Bold'"
         id="path18650" />
      <path
         d="m 11.146659,86.970182 0.375515,-0.19637 h 0.160198 v 1.800063 h -0.535713 z m -0.02239,-0.775147 q 0,-0.0534 0.02239,-0.10163 0.02239,-0.04823 0.06201,-0.08268 0.03962,-0.03445 0.09129,-0.05512 0.05168,-0.02067 0.111965,-0.02067 0.06029,0 0.111966,0.02067 0.0534,0.02067 0.0913,0.05512 0.03962,0.03445 0.06201,0.08268 0.02239,0.04823 0.02239,0.10163 0,0.0534 -0.02239,0.101631 -0.02239,0.04651 -0.06201,0.08096 -0.0379,0.03445 -0.0913,0.05512 -0.05168,0.02067 -0.111966,0.02067 -0.06029,0 -0.111965,-0.02067 -0.05168,-0.02067 -0.09129,-0.05512 -0.03962,-0.03445 -0.06201,-0.08096 -0.02239,-0.04823 -0.02239,-0.101631 z"
         style="font-weight:bold;font-size:3.52778px;font-family:'Tamil MN';-inkscape-font-specification:'Tamil MN, Bold'"
         id="path18652" />
      <path
         d="m 13.286064,87.369814 q 0,-0.06718 -0.0155,-0.118856 -0.01378,-0.0534 -0.03962,-0.08785 -0.02412,-0.03617 -0.05684,-0.0534 -0.03101,-0.01895 -0.06546,-0.01895 -0.03445,0 -0.07924,0.01378 -0.04479,0.01378 -0.09474,0.03962 -0.04823,0.02412 -0.09991,0.06029 -0.05168,0.03617 -0.09819,0.08096 v 1.288466 h -0.537435 v -1.603693 l 0.377238,-0.19637 h 0.160197 v 0.179145 q 0.124024,-0.08957 0.265273,-0.130914 0.141249,-0.04306 0.280775,-0.04306 0.108521,0 0.204983,0.04306 0.09819,0.04134 0.170533,0.113688 0.07407,0.07235 0.117133,0.170533 0.04306,0.09646 0.04306,0.206706 v 1.260905 h -0.532268 z"
         style="font-weight:bold;font-size:3.52778px;font-family:'Tamil MN';-inkscape-font-specification:'Tamil MN, Bold'"
         id="path18654" />
    </g>
    <g
       aria-label="Mix
Out"
       id="text2984-4"
       style="font-size:4.23333px;line-height:0.85;font-family:Skia;-inkscape-font-specification:'Skia, Normal';display:inline;stroke-width:0.264583"
       transform="translate(0.02026333)">
      <path
         d="m 7.3965674,107.50338 h 0.5581058 l 0.8078755,1.59508 0.7958175,-1.59508 h 0.5460478 v 2.33578 H 9.532528 v -1.52274 l -0.7630892,1.52274 H 8.5489526 L 7.7600252,108.2992 v 1.53996 H 7.3965674 Z"
         style="font-weight:bold;font-size:3.52778px;font-family:'Tamil MN';-inkscape-font-specification:'Tamil MN, Bold';text-align:center;text-anchor:middle;fill:#ffffff"
         id="path18675" />
      <path
         d="m 10.678023,108.23546 0.375516,-0.19637 h 0.160197 v 1.80007 h -0.535713 z m -0.02239,-0.77514 q 0,-0.0534 0.02239,-0.10163 0.02239,-0.0482 0.06201,-0.0827 0.03962,-0.0344 0.09129,-0.0551 0.05168,-0.0207 0.111965,-0.0207 0.06029,0 0.111966,0.0207 0.0534,0.0207 0.0913,0.0551 0.03962,0.0345 0.06201,0.0827 0.02239,0.0482 0.02239,0.10163 0,0.0534 -0.02239,0.10163 -0.02239,0.0465 -0.06201,0.081 -0.0379,0.0344 -0.0913,0.0551 -0.05168,0.0207 -0.111966,0.0207 -0.06029,0 -0.111965,-0.0207 -0.05168,-0.0207 -0.09129,-0.0551 -0.03962,-0.0345 -0.06201,-0.081 -0.02239,-0.0482 -0.02239,-0.10163 z"
         style="font-weight:bold;font-size:3.52778px;font-family:'Tamil MN';-inkscape-font-specification:'Tamil MN, Bold';text-align:center;text-anchor:middle;fill:#ffffff"
         id="path18677" />
      <path
         d="m 11.510014,108.07527 h 0.597725 l 1.252293,1.76389 h -0.599447 z m 0.377238,1.76389 h -0.380683 l 1.474502,-1.76389 h 0.380683 z"
         style="font-weight:bold;font-size:3.52778px;font-family:'Tamil MN';-inkscape-font-specification:'Tamil MN, Bold';text-align:center;text-anchor:middle;fill:#ffffff"
         id="path18679" />
      <path
         d="m 8.4576575,113.53037 q -0.282498,0 -0.5270999,-0.0913 -0.244602,-0.0913 -0.4237471,-0.25493 -0.179145,-0.16537 -0.282498,-0.39102 -0.1016304,-0.22738 -0.1016304,-0.49782 0,-0.26527 0.1016304,-0.48576 0.103353,-0.22221 0.282498,-0.38068 0.1791451,-0.15848 0.4237471,-0.24633 0.2446019,-0.0879 0.5270999,-0.0879 0.282498,0 0.5253774,0.0896 0.2446019,0.0879 0.423747,0.24632 0.1808677,0.15848 0.2842206,0.37896 0.1033529,0.21877 0.1033529,0.48059 0,0.18604 -0.046509,0.3514 -0.046509,0.16365 -0.1326363,0.30145 -0.086127,0.1378 -0.2067058,0.24632 -0.1205784,0.10852 -0.2704402,0.18432 -0.1481392,0.0758 -0.3203941,0.11541 -0.1722549,0.0413 -0.3600127,0.0413 z m 0,-0.19637 q 0.1705323,0 0.3014461,-0.0775 0.1309137,-0.0792 0.2187637,-0.21704 0.08785,-0.1378 0.1326362,-0.32728 0.046509,-0.19121 0.046509,-0.41686 0,-0.22221 -0.046509,-0.40652 -0.044786,-0.18431 -0.1326362,-0.31695 -0.08785,-0.13264 -0.2187637,-0.20671 -0.1309138,-0.0741 -0.3014461,-0.0741 -0.1722549,0 -0.3031686,0.0741 -0.1309137,0.0741 -0.2187637,0.20671 -0.08785,0.13264 -0.1326363,0.31695 -0.044786,0.18431 -0.044786,0.40652 0,0.22565 0.044786,0.41686 0.044786,0.18948 0.1326363,0.32728 0.08785,0.13781 0.2187637,0.21704 0.1309137,0.0775 0.3031686,0.0775 z"
         style="font-weight:bold;font-size:3.52778px;font-family:'Tamil MN';-inkscape-font-specification:'Tamil MN, Bold';text-align:center;text-anchor:middle;fill:#ffffff"
         id="path18681" />
      <path
         d="m 10.827885,111.7148 v 1.24368 q 0,0.0517 0.02067,0.0982 0.02067,0.0448 0.05512,0.0792 0.03617,0.0327 0.08268,0.0517 0.04651,0.019 0.09991,0.019 0.02928,0 0.06546,-0.0155 0.0379,-0.0172 0.07579,-0.0465 0.03962,-0.0293 0.07752,-0.0689 0.0379,-0.0396 0.06718,-0.0861 v -1.27469 h 0.53399 v 1.76389 h -0.53399 v -0.16364 q -0.106798,0.0896 -0.225654,0.14297 -0.117133,0.0534 -0.230821,0.0534 -0.130914,0 -0.244602,-0.0431 -0.113688,-0.0448 -0.198093,-0.11886 -0.08268,-0.0758 -0.130914,-0.1757 -0.04823,-0.10163 -0.04823,-0.21532 v -1.24368 z"
         style="font-weight:bold;font-size:3.52778px;font-family:'Tamil MN';-inkscape-font-specification:'Tamil MN, Bold';text-align:center;text-anchor:middle;fill:#ffffff"
         id="path18683" />
      <path
         d="m 12.248988,111.93529 v -0.12575 l 0.28422,-0.0947 v -0.35829 l 0.373793,-0.19637 h 0.160197 v 0.55466 h 0.43236 v 0.22049 h -0.43236 v 1.13516 q 0,0.0534 0.02756,0.093 0.02756,0.0396 0.07235,0.0396 0.02756,0 0.06029,-0.0189 0.03445,-0.019 0.06374,-0.0431 0.03101,-0.0258 0.0534,-0.0517 0.02412,-0.0258 0.03445,-0.0396 l 0.18259,0.14469 q -0.04479,0.0689 -0.09818,0.12919 -0.0534,0.0586 -0.122301,0.10163 -0.0689,0.0431 -0.158475,0.0672 -0.08957,0.0258 -0.206706,0.0258 -0.111965,0 -0.194648,-0.0327 -0.08268,-0.031 -0.137804,-0.0879 -0.05512,-0.0568 -0.08268,-0.13608 -0.02756,-0.0792 -0.02756,-0.1757 v -1.15066 z"
         style="font-weight:bold;font-size:3.52778px;font-family:'Tamil MN';-inkscape-font-specification:'Tamil MN, Bold';text-align:center;text-anchor:middle;fill:#ffffff"
         id="path18685" />
    </g>
    <g
       aria-label="Ins"
       id="text21641"
       style="font-size:4.23333px;line-height:1.25;font-family:Skia;-inkscape-font-specification:'Skia, Normal';stroke-width:0.264583">
      <path
         d="m 7.7796075,17.620235 h 0.4609533 v 2.740916 H 7.7796075 Z"
         style="font-family:'Tamil MN';-inkscape-font-specification:'Tamil MN, Normal'"
         id="path57382" />
      <path
         d="m 9.288558,18.205212 h 0.1198893 v 0.42788 q 0.1922361,-0.214973 0.3989417,-0.320393 0.206706,-0.107487 0.419612,-0.107487 0.111621,0 0.206706,0.04961 0.09715,0.04961 0.169498,0.136426 0.07235,0.08682 0.113688,0.204638 0.04134,0.115755 0.04134,0.248047 v 1.517219 H 10.33862 V 18.91628 q 0,-0.10542 -0.0248,-0.183968 -0.0248,-0.08061 -0.07028,-0.134359 -0.04548,-0.05374 -0.107487,-0.08061 -0.05995,-0.02894 -0.134359,-0.02894 -0.066146,0 -0.1405596,0.02274 -0.074414,0.02274 -0.1529621,0.06408 -0.076481,0.03927 -0.1529621,0.09508 -0.076481,0.05581 -0.1467609,0.124024 v 1.566828 H 8.9867679 v -2.038117 z"
         style="font-family:'Tamil MN';-inkscape-font-specification:'Tamil MN, Normal'"
         id="path57384" />
      <path
         d="m 12.139028,20.259865 q 0.08475,0 0.157096,-0.02481 0.07235,-0.02687 0.124023,-0.07028 0.05374,-0.04341 0.08268,-0.09922 0.02894,-0.05788 0.02894,-0.117822 0,-0.09715 -0.04961,-0.169499 -0.04754,-0.07235 -0.128158,-0.128157 -0.07855,-0.05788 -0.179833,-0.10542 -0.101286,-0.04754 -0.206706,-0.09715 -0.10542,-0.05168 -0.206706,-0.107487 -0.101285,-0.05788 -0.1819,-0.134358 -0.07855,-0.07648 -0.128158,-0.1757 -0.04754,-0.101286 -0.04754,-0.235644 0,-0.126091 0.05374,-0.233578 0.05374,-0.109554 0.148828,-0.188102 0.09715,-0.07855 0.229443,-0.121956 0.132292,-0.04547 0.289388,-0.04547 0.10542,0 0.196371,0.01447 0.09095,0.01447 0.177766,0.05581 0.08888,0.04134 0.1757,0.119889 0.08682,0.07648 0.183968,0.200504 l -0.155029,0.138493 q -0.119889,-0.19637 -0.268717,-0.291455 -0.146761,-0.09715 -0.314193,-0.09715 -0.09095,0 -0.165364,0.02274 -0.07441,0.02067 -0.128158,0.05994 -0.05168,0.03721 -0.08268,0.08888 -0.02894,0.05168 -0.02894,0.109554 0,0.09509 0.05168,0.165365 0.05374,0.07028 0.140559,0.128157 0.08682,0.05581 0.196371,0.103353 0.111621,0.04754 0.225309,0.09715 0.115755,0.04961 0.225309,0.107487 0.111621,0.05788 0.198437,0.134359 0.08682,0.07441 0.138493,0.173633 0.05374,0.09922 0.05374,0.23151 0,0.134358 -0.04961,0.252181 -0.04961,0.115755 -0.150895,0.202571 -0.09922,0.08475 -0.250114,0.134359 -0.150895,0.04961 -0.355533,0.04961 -0.09302,0 -0.192237,-0.01447 -0.09715,-0.01447 -0.19637,-0.05581 -0.09922,-0.04341 -0.198437,-0.119889 -0.09922,-0.07648 -0.194303,-0.200505 l 0.171565,-0.155029 q 0.07648,0.107487 0.146761,0.183968 0.07028,0.07441 0.142627,0.124024 0.07441,0.04754 0.150895,0.07028 0.07855,0.02067 0.169499,0.02067 z"
         style="font-family:'Tamil MN';-inkscape-font-specification:'Tamil MN, Normal'"
         id="path57386" />
    </g>
  </g>
  <g
     inkscape:groupmode="layer"
     id="layer5"
     inkscape:label="components"
     style="display:none"
     sodipodi:insensitive="true">
    <circle
       inkscape:label="in1"
       style="display:inline;fill:#00ff00;fill-opacity:1;stroke:#fff700;stroke-width:0"
       id="path847-1-1-1"
       cx="10.362393"
       cy="26.448841"
       r="4.2865553" />
    <circle
       inkscape:label="in2"
       style="display:inline;fill:#00ff00;fill-opacity:1;stroke:#fff700;stroke-width:0"
       id="path847-1-1-1-5"
       cx="10.362393"
       cy="43.308002"
       r="4.2865553" />
    <circle
       inkscape:label="in3"
       style="display:inline;fill:#00ff00;fill-opacity:1;stroke:#fff700;stroke-width:0"
       id="path847-1-1-1-0"
       cx="10.362393"
       cy="60.167164"
       r="4.2865553" />
    <circle
       inkscape:label="gain"
       style="display:inline;fill:#ff0000;fill-opacity:1;stroke:#fff700;stroke-width:0"
       id="path847-1-1-1-4"
       cx="10.362393"
       cy="95.729576"
       r="4.2865553" />
    <circle
       inkscape:label="mix"
       r="4.2865553"
       cy="119.41526"
       cx="10.362393"
       id="path847-5-4-8-8-1-1"
       style="display:inline;fill:#0000ff;fill-opacity:1;stroke:#fff700;stroke-width:0" />
  </g>
</svg>
